<svg width="367" height="121" viewBox="0 0 367 121" fill="none" xmlns="http://www.w3.org/2000/svg">
<g clip-path="url(#clip0_7_3)">
<path d="M25.8523 24.2727L37.7841 45.4375H38.3523L50.4261 24.2727H72.4432L50.7102 60.6364L73.2955 97H50.7102L38.3523 75.4091H37.7841L25.4261 97H2.98295L25.2841 60.6364L3.69318 24.2727H25.8523ZM99.5455 97.9943C93.7216 97.9943 88.7027 96.8816 84.4886 94.6562C80.2983 92.4072 77.0668 89.1875 74.794 84.9972C72.545 80.7831 71.4205 75.7405 71.4205 69.8693C71.4205 64.2348 72.5568 59.3106 74.8295 55.0966C77.1023 50.8826 80.3101 47.6037 84.4531 45.2599C88.5961 42.9162 93.4848 41.7443 99.1193 41.7443C103.239 41.7443 106.967 42.3835 110.305 43.6619C113.643 44.9403 116.496 46.7988 118.864 49.2372C121.231 51.652 123.054 54.5876 124.332 58.044C125.611 61.5005 126.25 65.3949 126.25 69.7273V74.2727H77.5284V63.4773H108.21C108.187 61.9148 107.784 60.5417 107.003 59.358C106.245 58.1506 105.215 57.2154 103.913 56.5526C102.635 55.866 101.179 55.5227 99.5455 55.5227C97.9593 55.5227 96.5033 55.866 95.1776 56.5526C93.8518 57.2154 92.7865 58.1387 91.9815 59.3224C91.2003 60.5062 90.786 61.8911 90.7386 63.4773V75.125C90.7386 76.8769 91.1056 78.4394 91.8395 79.8125C92.5734 81.1856 93.6269 82.2628 95 83.044C96.3731 83.8253 98.0303 84.2159 99.9716 84.2159C101.321 84.2159 102.552 84.0265 103.665 83.6477C104.801 83.2689 105.772 82.7244 106.577 82.0142C107.382 81.2803 107.973 80.4044 108.352 79.3864H126.25C125.634 83.1742 124.179 86.465 121.882 89.2585C119.586 92.0284 116.544 94.1828 112.756 95.7216C108.991 97.2367 104.588 97.9943 99.5455 97.9943ZM148.851 66.3182V97H129.249V42.4545H147.857V52.8239H148.425C149.609 49.3674 151.692 46.6567 154.675 44.6918C157.682 42.7268 161.185 41.7443 165.186 41.7443C169.045 41.7443 172.395 42.6321 175.236 44.4077C178.101 46.1596 180.314 48.5743 181.877 51.652C183.463 54.7296 184.244 58.2453 184.221 62.1989V97H164.618V66.3182C164.642 63.6193 163.955 61.5005 162.559 59.9616C161.185 58.4228 159.268 57.6534 156.806 57.6534C155.196 57.6534 153.787 58.0085 152.58 58.7188C151.396 59.4053 150.485 60.3996 149.846 61.7017C149.206 62.9801 148.875 64.5189 148.851 66.3182ZM215.176 97.9943C209.257 97.9943 204.191 96.8224 199.977 94.4787C195.763 92.1113 192.531 88.8205 190.282 84.6065C188.033 80.3688 186.909 75.4564 186.909 69.8693C186.909 64.2822 188.033 59.3816 190.282 55.1676C192.531 50.9299 195.763 47.6392 199.977 45.2955C204.191 42.928 209.257 41.7443 215.176 41.7443C221.094 41.7443 226.161 42.928 230.375 45.2955C234.589 47.6392 237.82 50.9299 240.069 55.1676C242.318 59.3816 243.443 64.2822 243.443 69.8693C243.443 75.4564 242.318 80.3688 240.069 84.6065C237.82 88.8205 234.589 92.1113 230.375 94.4787C226.161 96.8224 221.094 97.9943 215.176 97.9943ZM215.318 83.5057C216.975 83.5057 218.407 82.9493 219.615 81.8366C220.822 80.724 221.757 79.1378 222.42 77.0781C223.083 75.0185 223.414 72.5682 223.414 69.7273C223.414 66.8627 223.083 64.4124 222.42 62.3764C221.757 60.3168 220.822 58.7306 219.615 57.6179C218.407 56.5052 216.975 55.9489 215.318 55.9489C213.566 55.9489 212.063 56.5052 210.808 57.6179C209.553 58.7306 208.594 60.3168 207.931 62.3764C207.269 64.4124 206.937 66.8627 206.937 69.7273C206.937 72.5682 207.269 75.0185 207.931 77.0781C208.594 79.1378 209.553 80.724 210.808 81.8366C212.063 82.9493 213.566 83.5057 215.318 83.5057Z" fill="black"/>
<path d="M272.676 118.591C267.207 118.591 262.52 117.81 258.613 116.247C254.731 114.708 251.712 112.578 249.558 109.855C247.427 107.156 246.232 104.055 245.971 100.551H264.863C265.053 101.711 265.526 102.646 266.284 103.357C267.041 104.067 268.012 104.576 269.196 104.884C270.403 105.215 271.752 105.381 273.244 105.381C275.777 105.381 277.872 104.765 279.529 103.534C281.21 102.303 282.051 100.078 282.051 96.858V87.625H281.483C280.772 89.4716 279.683 91.0459 278.216 92.348C276.748 93.6264 274.984 94.6089 272.924 95.2955C270.865 95.9583 268.604 96.2898 266.142 96.2898C262.259 96.2898 258.684 95.3902 255.417 93.5909C252.174 91.7917 249.57 88.9389 247.605 85.0327C245.663 81.1264 244.693 76.0246 244.693 69.7273C244.693 63.1458 245.711 57.7955 247.747 53.6761C249.806 49.5568 252.458 46.5384 255.701 44.6207C258.968 42.7031 262.401 41.7443 266 41.7443C268.699 41.7443 271.066 42.2178 273.102 43.1648C275.138 44.0881 276.842 45.331 278.216 46.8935C279.589 48.4323 280.63 50.125 281.341 51.9716H281.767V42.4545H301.369V96.858C301.369 101.474 300.173 105.393 297.782 108.612C295.415 111.856 292.077 114.33 287.768 116.034C283.459 117.739 278.429 118.591 272.676 118.591ZM273.386 82.3693C275.185 82.3693 276.724 81.8722 278.002 80.8778C279.305 79.8598 280.299 78.4157 280.985 76.5455C281.696 74.6515 282.051 72.3788 282.051 69.7273C282.051 67.0284 281.696 64.7202 280.985 62.8026C280.299 60.8613 279.305 59.3816 278.002 58.3636C276.724 57.322 275.185 56.8011 273.386 56.8011C271.587 56.8011 270.048 57.322 268.77 58.3636C267.515 59.3816 266.544 60.8613 265.858 62.8026C265.195 64.7202 264.863 67.0284 264.863 69.7273C264.863 72.4261 265.195 74.7225 265.858 76.6165C266.544 78.4867 267.515 79.919 268.77 80.9134C270.048 81.884 271.587 82.3693 273.386 82.3693ZM306.339 97V42.4545H325.941V97H306.339ZM316.14 36.7727C313.488 36.7727 311.216 35.8968 309.322 34.1449C307.428 32.393 306.481 30.286 306.481 27.8239C306.481 25.3617 307.428 23.2547 309.322 21.5028C311.216 19.7509 313.488 18.875 316.14 18.875C318.815 18.875 321.088 19.7509 322.958 21.5028C324.852 23.2547 325.799 25.3617 325.799 27.8239C325.799 30.286 324.852 32.393 322.958 34.1449C321.088 35.8968 318.815 36.7727 316.14 36.7727ZM363.457 42.4545V56.6591H327.52V42.4545H363.457ZM334.48 29.3864H354.082V79.4574C354.082 80.215 354.212 80.8542 354.473 81.375C354.733 81.8722 355.136 82.2509 355.68 82.5114C356.225 82.7481 356.923 82.8665 357.775 82.8665C358.367 82.8665 359.054 82.7955 359.835 82.6534C360.64 82.5114 361.232 82.393 361.61 82.2983L364.451 96.0767C363.575 96.3371 362.321 96.6567 360.687 97.0355C359.077 97.4143 357.16 97.6629 354.934 97.7812C350.436 98.018 346.66 97.5563 343.606 96.3963C340.552 95.2126 338.256 93.3542 336.717 90.821C335.178 88.2879 334.432 85.1155 334.48 81.304V29.3864Z" fill="#E52C2C"/>
</g>
<defs>
<clipPath id="clip0_7_3">
<rect width="367" height="121" fill="white"/>
</clipPath>
</defs>
</svg>
